<svg width="24" height="24" viewBox="0 0 24 24" fill="none" xmlns="http://www.w3.org/2000/svg">
<path d="M18.3496 8.76253C19.3498 9.48964 20.0001 10.6689 20.0001 12.0001C20.0001 13.3313 19.3498 14.5106 18.3496 15.2377M10.2813 14.9348L13.3473 17.5762C13.9955 18.1347 15 17.6742 15 16.8186V7.18162C15 6.32608 13.9955 5.86559 13.3473 6.42401L10.2813 9.06544C10.0998 9.22182 9.86822 9.30783 9.62864 9.30783H7C5.89543 9.30783 5 10.2032 5 11.3078V12.6924C5 13.797 5.89543 14.6924 7 14.6924H9.62864C9.86822 14.6924 10.0998 14.7784 10.2813 14.9348Z" stroke="black" stroke-width="1.25" stroke-linecap="round"/>
</svg>
