<svg width="24" height="24" viewBox="0 0 24 24" fill="none" xmlns="http://www.w3.org/2000/svg">
<path d="M3 11.3078C3 10.2032 3.89543 9.30783 5 9.30783H7.62864C7.86822 9.30783 8.09984 9.22182 8.28135 9.06544L11.3473 6.42401C11.9955 5.86559 13 6.32608 13 7.18162V16.8186C13 17.6742 11.9955 18.1346 11.3473 17.5762L8.28135 14.9348C8.09984 14.7784 7.86822 14.6924 7.62864 14.6924H5C3.89543 14.6924 3 13.797 3 12.6924V11.3078Z" stroke="black" stroke-width="1.25" stroke-linecap="round"/>
<path d="M16 14.5L18.5 12M18.5 12L21 9.5M18.5 12L21 14.5M18.5 12L16 9.5" stroke="black" stroke-width="1.25" stroke-linecap="round"/>
</svg>
