<svg width="24" height="24" viewBox="0 0 24 24" fill="none" xmlns="http://www.w3.org/2000/svg">
<path d="M16.3495 8.76255C17.3497 9.48966 18 10.669 18 12.0002C18 13.3314 17.3497 14.5107 16.3495 15.2378M18.5 6.63803C20.0285 7.9221 21 9.84766 21 12.0002C21 14.1527 20.0285 16.0782 18.5 17.3623M8.28135 14.9349L11.3473 17.5763C11.9955 18.1347 13 17.6743 13 16.8187V7.18162C13 6.32608 11.9955 5.86559 11.3473 6.42401L8.28135 9.06544C8.09984 9.22182 7.86822 9.30783 7.62864 9.30783H5C3.89543 9.30783 3 10.2033 3 11.3079V12.6925C3 13.7971 3.89543 14.6925 5 14.6925H7.62864C7.86822 14.6925 8.09984 14.7785 8.28135 14.9349Z" stroke="black" stroke-width="1.25" stroke-linecap="round"/>
</svg>
