<svg width="64" height="64" viewBox="0 0 64 64" fill="none" xmlns="http://www.w3.org/2000/svg">
<path d="M32 9.33325C18.74 9.33325 8 19.7331 8 32.5733C8 42.8557 14.8682 51.5407 24.4063 54.621L24.4139 54.6229C25.611 54.8239 26.06 54.1277 26.06 53.5183C26.06 52.9725 26.0306 51.1759 26.03 49.2535C26.03 49.2205 25.9986 49.1954 25.9658 49.2013C19.9889 50.2469 18.4383 47.7618 17.96 46.4591C17.69 45.7911 16.52 43.7285 15.5 43.1765C14.66 42.7407 13.46 41.6658 15.47 41.6367C17.36 41.6079 18.71 43.3218 19.16 44.0189C21.3064 47.5119 24.7266 46.5586 26.1237 45.9479C26.1406 45.9405 26.1516 45.925 26.1542 45.9066C26.3585 44.4807 26.9381 43.4983 27.5861 42.9098C27.6211 42.8783 27.6029 42.8194 27.5563 42.8141C22.2541 42.2157 16.76 40.1738 16.76 31.3533C16.76 28.8389 17.6805 26.7557 19.1964 25.1325C19.2107 25.1172 19.2154 25.0962 19.2075 25.0768C18.9532 24.4482 18.166 22.1027 19.4503 18.9725C19.4563 18.9577 19.4687 18.9462 19.4843 18.9425C19.7244 18.8861 21.7541 18.5293 26.0395 21.3175C26.0522 21.3258 26.0684 21.3286 26.0831 21.3246C27.9963 20.8059 30.0283 20.5466 32.06 20.5466C34.0917 20.5466 36.1235 20.8059 38.0368 21.3246C38.0515 21.3286 38.0677 21.3258 38.0805 21.3174C42.3683 18.5006 44.3979 18.8831 44.636 18.9423C44.6515 18.9461 44.6637 18.9575 44.6696 18.9721C45.9541 22.1026 45.1669 24.4482 44.9125 25.0768C44.9045 25.0962 44.9093 25.1172 44.9235 25.1326C46.4395 26.7554 47.36 28.8098 47.36 31.3533C47.36 40.2023 41.8368 42.2157 36.5344 42.8141C36.4877 42.8194 36.4696 42.8786 36.5045 42.9101C37.3336 43.657 38.0299 45.0279 38.0299 47.1274C38.0299 50.2357 38 52.7341 38 53.5183C38 54.1285 38.4501 54.8546 39.6501 54.6223C44.4144 53.0647 48.5547 50.0997 51.4877 46.1442C54.4205 42.189 55.9987 37.4426 56 32.5733C56 19.7331 45.26 9.33325 32 9.33325Z" stroke="white" stroke-width="3" stroke-linecap="round"/>
</svg>
