<svg width="64" height="64" viewBox="0 0 64 64" fill="none" xmlns="http://www.w3.org/2000/svg">
<path d="M43.5987 23.3664C46.2659 25.3054 48 28.4501 48 32C48 35.5499 46.2659 38.6947 43.5987 40.6336M49.3333 17.701C53.4093 21.1252 56 26.26 56 32C56 37.74 53.4093 42.8747 49.3333 46.2989M22.0836 39.8259L30.2595 46.8696C31.988 48.3587 34.6667 47.1309 34.6667 44.8493V19.1506C34.6667 16.8691 31.988 15.6412 30.2595 17.1303L22.0836 24.1741C21.5996 24.5911 20.9819 24.8205 20.343 24.8205H13.3333C10.3878 24.8205 8 27.2083 8 30.1539V33.8461C8 36.7917 10.3878 39.1795 13.3333 39.1795H20.343C20.9819 39.1795 21.5996 39.4088 22.0836 39.8259Z" stroke="white" stroke-width="3" stroke-linecap="round"/>
</svg>
