<svg width="64" height="64" viewBox="0 0 64 64" fill="none" xmlns="http://www.w3.org/2000/svg">
<path d="M8 30.1538C8 27.2082 10.3878 24.8205 13.3333 24.8205H20.343C20.9819 24.8205 21.5996 24.5911 22.0836 24.1741L30.2595 17.1303C31.988 15.6412 34.6667 16.8691 34.6667 19.1506V44.8493C34.6667 47.1309 31.988 48.3586 30.2595 46.8696L22.0836 39.8258C21.5996 39.4088 20.9819 39.1794 20.343 39.1794H13.3333C10.3878 39.1794 8 36.7917 8 33.8461V30.1538Z" stroke="white" stroke-width="3" stroke-linecap="round"/>
<path d="M42.6667 38.6666L49.3334 32M49.3334 32L56.0001 25.3333M49.3334 32L56.0001 38.6666M49.3334 32L42.6667 25.3333" stroke="white" stroke-width="3" stroke-linecap="round"/>
</svg>
