<svg width="64" height="64" viewBox="0 0 64 64" fill="none" xmlns="http://www.w3.org/2000/svg">
<path d="M24 36.0001V53.3334M24 36.0001V32.0001C24 30.5273 25.1939 29.3334 26.6667 29.3334H37.3333C38.8061 29.3334 40 30.5273 40 32.0001V41.3334M24 36.0001H10.6667C9.19392 36.0001 8 37.1939 8 38.6667V50.6667C8 52.1395 9.19392 53.3334 10.6667 53.3334H24M24 53.3334H40M40 41.3334V53.3334M40 41.3334H53.3341C54.8069 41.3334 56 42.5273 56 44.0001V50.6667C56 52.1395 54.8061 53.3334 53.3333 53.3334H40M29.3333 13.3334L32 10.6667V18.6667M17.3333 26.6667H15.7817C14.4295 26.6667 13.3176 25.3439 14.4427 24.5938L16.1731 23.4402C16.8979 22.957 17.3333 22.1435 17.3333 21.2723V20.6667C17.3333 19.5622 16.4379 18.6667 15.3333 18.6667C14.2288 18.6667 13.3333 19.5622 13.3333 20.6667V21.3334M46.6667 24.0001H48.6981C49.7853 24.0001 50.6667 24.8814 50.6667 25.9685C50.6667 26.9939 49.8795 27.8475 48.8573 27.9305L48 28.0001L48.8339 28.0595C49.8664 28.1329 50.6667 28.9921 50.6667 30.0273C50.6667 31.1169 49.7835 32.0001 48.6939 32.0001H46.6667" stroke="white" stroke-width="3" stroke-linecap="round"/>
</svg>
